<svg width="26" height="26" viewBox="0 0 26 26" fill="none" xmlns="http://www.w3.org/2000/svg">
<path d="M4.32496 24.1976H22.0352C23.4325 24.1976 24.5652 23.0648 24.5652 21.6675V3.95728C24.5652 2.55998 23.4325 1.42725 22.0352 1.42725H4.32496C2.92766 1.42725 1.79492 2.55998 1.79492 3.95728V21.6675C1.79492 23.0648 2.92766 24.1976 4.32496 24.1976ZM4.32496 24.1976L18.2402 10.2824L24.5652 16.6075M10.65 8.38484C10.65 9.43282 9.80049 10.2824 8.75252 10.2824C7.70454 10.2824 6.85499 9.43282 6.85499 8.38484C6.85499 7.33687 7.70454 6.48732 8.75252 6.48732C9.80049 6.48732 10.65 7.33687 10.65 8.38484Z" stroke="#1E1E1E" stroke-width="2.53004" stroke-linecap="round" stroke-linejoin="round"/>
</svg>