<svg width="48" height="48" viewBox="0 0 48 48" fill="none" xmlns="http://www.w3.org/2000/svg">
<path d="M0 40V34.45C0 33.3167 0.283333 32.2667 0.85 31.3C1.41667 30.3333 2.2 29.6 3.2 29.1C3.66667 28.8667 4.11667 28.65 4.55 28.45C5.01667 28.25 5.5 28.0667 6 27.9V40H0ZM8 26C6.33333 26 4.91667 25.4167 3.75 24.25C2.58333 23.0833 2 21.6667 2 20C2 18.3333 2.58333 16.9167 3.75 15.75C4.91667 14.5833 6.33333 14 8 14C9.66667 14 11.0833 14.5833 12.25 15.75C13.4167 16.9167 14 18.3333 14 20C14 21.6667 13.4167 23.0833 12.25 24.25C11.0833 25.4167 9.66667 26 8 26ZM8 22C8.56667 22 9.03333 21.8167 9.4 21.45C9.8 21.05 10 20.5667 10 20C10 19.4333 9.8 18.9667 9.4 18.6C9.03333 18.2 8.56667 18 8 18C7.43333 18 6.95 18.2 6.55 18.6C6.18333 18.9667 6 19.4333 6 20C6 20.5667 6.18333 21.05 6.55 21.45C6.95 21.8167 7.43333 22 8 22ZM8 40V34.4C8 33.2667 8.28333 32.2333 8.85 31.3C9.45 30.3333 10.2333 29.6 11.2 29.1C13.2667 28.0667 15.3667 27.3 17.5 26.8C19.6333 26.2667 21.8 26 24 26C26.2 26 28.3667 26.2667 30.5 26.8C32.6333 27.3 34.7333 28.0667 36.8 29.1C37.7667 29.6 38.5333 30.3333 39.1 31.3C39.7 32.2333 40 33.2667 40 34.4V40H8ZM12 36H36V34.4C36 34.0333 35.9 33.7 35.7 33.4C35.5333 33.1 35.3 32.8667 35 32.7C33.2 31.8 31.3833 31.1333 29.55 30.7C27.7167 30.2333 25.8667 30 24 30C22.1333 30 20.2833 30.2333 18.45 30.7C16.6167 31.1333 14.8 31.8 13 32.7C12.7 32.8667 12.45 33.1 12.25 33.4C12.0833 33.7 12 34.0333 12 34.4V36ZM24 24C21.8 24 19.9167 23.2167 18.35 21.65C16.7833 20.0833 16 18.2 16 16C16 13.8 16.7833 11.9167 18.35 10.35C19.9167 8.78333 21.8 8 24 8C26.2 8 28.0833 8.78333 29.65 10.35C31.2167 11.9167 32 13.8 32 16C32 18.2 31.2167 20.0833 29.65 21.65C28.0833 23.2167 26.2 24 24 24ZM24 20C25.1 20 26.0333 19.6167 26.8 18.85C27.6 18.05 28 17.1 28 16C28 14.9 27.6 13.9667 26.8 13.2C26.0333 12.4 25.1 12 24 12C22.9 12 21.95 12.4 21.15 13.2C20.3833 13.9667 20 14.9 20 16C20 17.1 20.3833 18.05 21.15 18.85C21.95 19.6167 22.9 20 24 20ZM40 26C38.3333 26 36.9167 25.4167 35.75 24.25C34.5833 23.0833 34 21.6667 34 20C34 18.3333 34.5833 16.9167 35.75 15.75C36.9167 14.5833 38.3333 14 40 14C41.6667 14 43.0833 14.5833 44.25 15.75C45.4167 16.9167 46 18.3333 46 20C46 21.6667 45.4167 23.0833 44.25 24.25C43.0833 25.4167 41.6667 26 40 26ZM40 22C40.5667 22 41.0333 21.8167 41.4 21.45C41.8 21.05 42 20.5667 42 20C42 19.4333 41.8 18.9667 41.4 18.6C41.0333 18.2 40.5667 18 40 18C39.4333 18 38.95 18.2 38.55 18.6C38.1833 18.9667 38 19.4333 38 20C38 20.5667 38.1833 21.05 38.55 21.45C38.95 21.8167 39.4333 22 40 22ZM42 40V27.9C42.5 28.0667 42.9667 28.25 43.4 28.45C43.8667 28.65 44.3333 28.8667 44.8 29.1C45.8 29.6 46.5833 30.3333 47.15 31.3C47.7167 32.2667 48 33.3167 48 34.45V40H42Z" fill="#1D1B20"/>
</svg>
